# xmcd
#
# Track frame offsets:
# 150
# 14263
# 28649
# 52114
# 67771
# 83835
# 95496
# 111631
# 127235
# 138318
# 148381
#
# Disc length: 2119 seconds
#
#
# Revision: 0
# Processed by: cddbd v1.5.2PL0 Copyright (c) Steve Scherf et al.
# Submitted via: Nero 7, 11, 10, 0 
#
DISCID=a308450b
DTITLE=The Jim Liban Blues Trio - Hot Tongue And Cold Shoulder
DYEAR=2004
DGENRE=Blues
TTITLE0=All Corned Up
TTITLE1=Hot Tongue And Cold Shoulder
TTITLE2=I've Got A Job
TTITLE3=Maxwell Street
TTITLE4=I Say What I Mean
TTITLE5=Someday Baby
TTITLE6=Big Fat Woman
TTITLE7=If You Think
TTITLE8=I'm A Selfish Man
TTITLE9=You Can't Hurt Me Anymore
TTITLE10=145 Blues
EXTD=
EXTT0=All Corned Up
EXTT1=Hot Tongue And Cold Shoulder
EXTT2=I've Got A Job
EXTT3=Maxwell Street
EXTT4=I Say What I Mean
EXTT5=Someday Baby
EXTT6=Big Fat Woman
EXTT7=If You Think
EXTT8=I'm A Selfish Man
EXTT9=You Can't Hurt Me Anymore
EXTT10=145 Blues
PLAYORDER=
